<svg id="esaqw3p3000c1" xmlns="http://www.w3.org/2000/svg" xmlns:xlink="http://www.w3.org/1999/xlink" viewBox="0 0 753.950000 142.030000" shape-rendering="geometricPrecision" text-rendering="geometricPrecision"><style><![CDATA[#esaqw3p3000c4 {
           animation-name: esaqw3p3000c4_f_o, esaqw3p3000c4_s_do;
           animation-duration: 7100ms;
           animation-fill-mode: forwards;
           animation-timing-function: linear;
           animation-direction: normal;
           animation-iteration-count: 1;  
        }@keyframes esaqw3p3000c4_f_o { 0% {fill-opacity: 0} 81.408451% {fill-opacity: 0} 99.718310% {fill-opacity: 1} 100% {fill-opacity: 1} }@keyframes esaqw3p3000c4_s_do { 0% {stroke-dashoffset: 694.090000} 8.169014% {stroke-dashoffset: 694.090000} 22.253521% {stroke-dashoffset: 0} 100% {stroke-dashoffset: 0} }#esaqw3p3000c5 {
           animation-name: esaqw3p3000c5_f_o, esaqw3p3000c5_s_do;
           animation-duration: 7100ms;
           animation-fill-mode: forwards;
           animation-timing-function: linear;
           animation-direction: normal;
           animation-iteration-count: 1;  
        }@keyframes esaqw3p3000c5_f_o { 0% {fill-opacity: 0} 81.408451% {fill-opacity: 0} 99.718310% {fill-opacity: 1} 100% {fill-opacity: 1} }@keyframes esaqw3p3000c5_s_do { 0% {stroke-dashoffset: 387.270000} 15.211268% {stroke-dashoffset: 387.270000} 29.295775% {stroke-dashoffset: 0} 100% {stroke-dashoffset: 0} }#esaqw3p3000c6 {
           animation-name: esaqw3p3000c6_f_o, esaqw3p3000c6_s_do;
           animation-duration: 7100ms;
           animation-fill-mode: forwards;
           animation-timing-function: linear;
           animation-direction: normal;
           animation-iteration-count: 1;  
        }@keyframes esaqw3p3000c6_f_o { 0% {fill-opacity: 0} 81.408451% {fill-opacity: 0} 99.718310% {fill-opacity: 1} 100% {fill-opacity: 1} }@keyframes esaqw3p3000c6_s_do { 0% {stroke-dashoffset: 806.940000} 22.253521% {stroke-dashoffset: 806.940000} 40.563380% {stroke-dashoffset: 0} 100% {stroke-dashoffset: 0} }#esaqw3p3000c7 {
           animation-name: esaqw3p3000c7_f_o, esaqw3p3000c7_s_do;
           animation-duration: 7100ms;
           animation-fill-mode: forwards;
           animation-timing-function: linear;
           animation-direction: normal;
           animation-iteration-count: 1;  
        }@keyframes esaqw3p3000c7_f_o { 0% {fill-opacity: 0} 81.408451% {fill-opacity: 0} 99.718310% {fill-opacity: 1} 100% {fill-opacity: 1} }@keyframes esaqw3p3000c7_s_do { 0% {stroke-dashoffset: 348.930000} 29.295775% {stroke-dashoffset: 348.930000} 41.971831% {stroke-dashoffset: 0} 100% {stroke-dashoffset: 0} }#esaqw3p3000c8 {
           animation-name: esaqw3p3000c8_f_o, esaqw3p3000c8_s_do;
           animation-duration: 7100ms;
           animation-fill-mode: forwards;
           animation-timing-function: linear;
           animation-direction: normal;
           animation-iteration-count: 1;  
        }@keyframes esaqw3p3000c8_f_o { 0% {fill-opacity: 0} 81.408451% {fill-opacity: 0} 99.718310% {fill-opacity: 1} 100% {fill-opacity: 1} }@keyframes esaqw3p3000c8_s_do { 0% {stroke-dashoffset: 364.240000} 36.338028% {stroke-dashoffset: 364.240000} 50.422535% {stroke-dashoffset: 0} 100% {stroke-dashoffset: 0} }#esaqw3p3000c9 {
           animation-name: esaqw3p3000c9_f_o, esaqw3p3000c9_s_do;
           animation-duration: 7100ms;
           animation-fill-mode: forwards;
           animation-timing-function: linear;
           animation-direction: normal;
           animation-iteration-count: 1;  
        }@keyframes esaqw3p3000c9_f_o { 0% {fill-opacity: 0} 81.408451% {fill-opacity: 0} 99.718310% {fill-opacity: 1} 100% {fill-opacity: 1} }@keyframes esaqw3p3000c9_s_do { 0% {stroke-dashoffset: 804.950000} 43.380282% {stroke-dashoffset: 804.950000} 63.098592% {stroke-dashoffset: 0} 100% {stroke-dashoffset: 0} }#esaqw3p3000c10 {
           animation-name: esaqw3p3000c10_f_o, esaqw3p3000c10_s_do;
           animation-duration: 7100ms;
           animation-fill-mode: forwards;
           animation-timing-function: linear;
           animation-direction: normal;
           animation-iteration-count: 1;  
        }@keyframes esaqw3p3000c10_f_o { 0% {fill-opacity: 0} 81.408451% {fill-opacity: 0} 99.718310% {fill-opacity: 1} 100% {fill-opacity: 1} }@keyframes esaqw3p3000c10_s_do { 0% {stroke-dashoffset: 416.860000} 50.422535% {stroke-dashoffset: 416.860000} 63.098592% {stroke-dashoffset: 0} 100% {stroke-dashoffset: 0} }#esaqw3p3000c11 {
           animation-name: esaqw3p3000c11_f_o, esaqw3p3000c11_s_do;
           animation-duration: 7100ms;
           animation-fill-mode: forwards;
           animation-timing-function: linear;
           animation-direction: normal;
           animation-iteration-count: 1;  
        }@keyframes esaqw3p3000c11_f_o { 0% {fill-opacity: 0} 81.408451% {fill-opacity: 0} 99.718310% {fill-opacity: 1} 100% {fill-opacity: 1} }@keyframes esaqw3p3000c11_s_do { 0% {stroke-dashoffset: 387.270000} 57.464789% {stroke-dashoffset: 387.270000} 70.140845% {stroke-dashoffset: 0} 100% {stroke-dashoffset: 0} }#esaqw3p3000c12 {
           animation-name: esaqw3p3000c12_f_o, esaqw3p3000c12_s_do;
           animation-duration: 7100ms;
           animation-fill-mode: forwards;
           animation-timing-function: linear;
           animation-direction: normal;
           animation-iteration-count: 1;  
        }@keyframes esaqw3p3000c12_f_o { 0% {fill-opacity: 0} 81.408451% {fill-opacity: 0} 99.718310% {fill-opacity: 1} 100% {fill-opacity: 1} }@keyframes esaqw3p3000c12_s_do { 0% {stroke-dashoffset: 408.970000} 64.507042% {stroke-dashoffset: 408.970000} 78.591549% {stroke-dashoffset: 0} 100% {stroke-dashoffset: 0} }]]></style><g id="esaqw3p3000c2"><g id="esaqw3p3000c3"><path id="esaqw3p3000c4" d="M66.090000,2.070000L60.460000,2.070000C36,2.070000,24.150000,16.890000,24.150000,29.340000C24.150000,37.190000,28.890000,44.160000,38.380000,45.640000C35.860000,57.640000,28.600000,62.830000,20.890000,62.830000C8.150000,62.830000,0,51.570000,0,38.530000C0,13.480000,30.230000,0,50.080000,0L105.500000,0L58.680000,102L68.160000,102C79.720000,102,95.570000,80.360000,84.460000,65.400000C108.170000,59.620000,113.210000,75.320000,113.210000,84.070000C113.210000,94.440000,103.130000,104.070000,92.760000,104.070000L19.260000,104.070000Z" fill="rgb(230, 42, 48)" fill-opacity="0" stroke="rgb(230, 42, 48)" stroke-width="2" stroke-linecap="round" stroke-linejoin="round" stroke-dashoffset="694.090000" stroke-dasharray="694.090000"/><path id="esaqw3p3000c5" d="M116.430000,76.260000L116.430000,61.260000C116.430000,58.960000,116.890000,54,113.430000,48.710000C123.430000,48.710000,134.740000,46.520000,144.070000,41.450000L144.070000,80.290000C144.070000,86.170000,145.800000,88.930000,148.070000,88.930000C151.640000,88.930000,156.710000,82.250000,159.590000,69.810000L159.590000,61.290000C159.590000,58.990000,160.050000,54.030000,156.590000,48.740000C166.590000,48.740000,177.900000,46.550000,187.230000,41.480000L187.230000,89.480000C187.230000,95.580000,188.610000,101.480000,190.110000,103.990000L170.560000,103.990000C161.690000,103.990000,159.620000,98.580000,159.620000,91.440000L159.620000,74.300000C155.930000,86.970000,146.490000,105.860000,133.240000,105.860000C117.920000,105.860000,116.430000,91.120000,116.430000,76.260000Z" fill="rgb(230, 42, 48)" fill-opacity="0" stroke="rgb(230, 42, 48)" stroke-width="2" stroke-linejoin="round" stroke-dashoffset="387.270000" stroke-dasharray="387.270000"/><path id="esaqw3p3000c6" d="M190.130000,72.350000C190.130000,56.350000,201.130000,40.670000,223.190000,40.560000C235.970000,40.560000,249.100000,45.860000,249.100000,56.560000C249.100000,62.560000,243.690000,65.560000,237.930000,65.560000C233.440000,65.560000,228.720000,63.720000,226.180000,60.030000C228.799284,57.892368,230.277190,54.659449,230.180000,51.280000C230.180000,46.670000,227.640000,42.410000,222.920000,42.410000C217.510000,42.410000,210.830000,48.630000,210.830000,61.190000C210.830000,79.730000,228.830000,94.010000,248.140000,94.010000C267.450000,94.010000,278,78.910000,286.540000,64.630000C294.370000,51.630000,300.540000,39.410000,310.380000,39.870000C315.440000,40.100000,318.210000,44.130000,317.380000,48.870000C316.920000,51.640000,314.960000,54.630000,311.380000,57.280000C309.540000,54.050000,307.240000,52.560000,304.380000,52.560000C299.890000,52.560000,295.970000,57.970000,290.790000,65.230000C294.360000,62.230000,298.270000,60.230000,302.530000,60.230000C311.980000,60.230000,319.470000,66.910000,319.470000,80.160000L319.470000,89.490000C319.470000,95.590000,321.080000,101.490000,322.580000,104L299.200000,104C291.030000,104,291.830000,98.590000,291.830000,91.450000L291.830000,80.180000C291.830000,75.460000,290.680000,73.270000,288.950000,73.270000C286.650000,73.270000,283.310000,76.950000,280.090000,83.170000L280.090000,86.050000C280.090000,94.110000,280.090000,96.880000,283.090000,104.050000L249.450000,104.050000L250.450000,101.750000C241.693711,104.827936,232.418218,106.156404,223.150000,105.660000C201.190000,104.710000,190.130000,88.360000,190.130000,72.350000ZM252.440000,43C252.440000,40.690000,252.900000,35.740000,249.440000,30.440000C259.440000,30.440000,270.750000,28.260000,280.080000,23.190000L280.080000,69.350000C274.900000,78,262.810000,89.740000,252.440000,89.740000Z" fill="rgb(230, 42, 48)" fill-opacity="0" stroke="rgb(230, 42, 48)" stroke-width="2" stroke-linejoin="round" stroke-dashoffset="806.940000" stroke-dasharray="806.940000"/><path id="esaqw3p3000c7" d="M322.580000,73.840000C322.580000,57.370000,334.320000,40.440000,358.050000,40.440000C374.870000,40.440000,382.810000,48.160000,383.390000,56.570000C384.080000,66.700000,374.390000,77.760000,357.390000,77.760000C355.461459,77.744861,353.536500,77.591132,351.630000,77.300000C355.320000,85.480000,362.340000,90.300000,369.370000,90.300000C375.130000,90.300000,380.890000,87.190000,385.030000,80.050000L385.950000,80.740000C383.300000,98.140000,366.030000,105.850000,354.630000,105.850000C333.290000,105.860000,322.580000,89.620000,322.580000,73.840000ZM363.690000,57.840000C363.690000,50.010000,361.160000,42.530000,357.590000,42.530000C349.300000,42.530000,347.110000,65.680000,350.910000,75.700000C351.441991,75.787404,351.981064,75.824235,352.520000,75.810000C360.580000,75.800000,363.690000,66.590000,363.690000,57.830000Z" fill="rgb(230, 42, 48)" fill-opacity="0" stroke="rgb(230, 42, 48)" stroke-width="2" stroke-linejoin="round" stroke-dashoffset="348.930000" stroke-dasharray="348.930000"/><path id="esaqw3p3000c8" d="M388.910000,86.280000L388.910000,54C388.910000,51.700000,389.370000,46.750000,385.910000,41.450000C394.200000,41.450000,409.060000,37.880000,416.550000,30.740000L416.550000,39.610000C426.230000,17.290000,445,6.810000,458.480000,6.810000C469.420000,6.810000,474.030000,12.570000,474.030000,18.810000C474.030000,26.810000,466.200000,35.510000,454.220000,33.320000C454.910000,24.110000,450.300000,19.850000,443.970000,19.850000C434.750000,19.850000,422.080000,28.850000,416.560000,44.960000L416.560000,86.280000C416.560000,94.350000,416.560000,97.110000,419.560000,104.280000L385.920000,104.280000C389.260000,97.110000,388.910000,94.350000,388.910000,86.280000Z" fill="rgb(230, 42, 48)" fill-opacity="0" stroke="rgb(230, 42, 48)" stroke-width="2" stroke-linejoin="round" stroke-dashoffset="364.240000" stroke-dasharray="364.240000"/><path id="esaqw3p3000c9" d="M513.530000,92.850000L513.530000,66C513.530000,60.130000,511.800000,57.360000,509.530000,57.360000C505.730000,57.360000,500.080000,65.080000,497.430000,79.250000L497.430000,86.250000C497.430000,94.320000,497.430000,97.080000,500.430000,104.250000L466.770000,104.250000C470.110000,97.110000,469.770000,94.350000,469.770000,86.250000L469.770000,66C469.770000,60.130000,468.040000,57.360000,465.770000,57.360000C462.200000,57.360000,456.900000,64.270000,454.140000,76.940000L454.140000,86.040000C454.140000,94.100000,454.140000,96.870000,457.140000,104.040000L423.460000,104.040000C426.800000,96.900000,426.460000,94.130000,426.460000,86.040000L426.460000,61.290000C426.460000,58.990000,426.920000,54.030000,423.460000,48.740000C433.460000,48.740000,444.770000,46.550000,454.100000,41.480000L454.100000,72.480000C457.670000,59.810000,467.100000,40.480000,480.590000,40.480000C495.910000,40.480000,497.400000,55.230000,497.400000,70.080000L497.400000,74.230000C500.630000,61.680000,510.300000,40.480000,524.400000,40.480000C539.710000,40.480000,541.210000,55.230000,541.210000,70.080000L541.210000,98.380000C541.210000,133.380000,551.460000,140.180000,560.670000,140.180000C568.160000,140.180000,573.920000,122.180000,573.920000,112.430000C583.920000,112.430000,594.420000,117.610000,594.420000,124.290000C594.420000,133.730000,581.750000,142.030000,560.210000,142.030000C533.220000,142,513.530000,128.440000,513.530000,92.850000Z" fill="rgb(230, 42, 48)" fill-opacity="0" stroke="rgb(230, 42, 48)" stroke-width="2" stroke-linejoin="round" stroke-dashoffset="804.950000" stroke-dasharray="804.950000"/><path id="esaqw3p3000c10" d="M544.160000,89.510000C544.160000,76.950000,555.910000,73.510000,567.540000,70.160000C579.170000,66.810000,590.800000,63.250000,590.800000,50.920000C590.800000,44.920000,586.540000,42.060000,582.170000,42.060000C577.440000,42.060000,572.610000,45.280000,572.610000,51.620000C572.571568,54.916921,574.229498,58.002408,577,59.790000C574.700000,63.480000,570,65.320000,565.370000,65.320000C559.370000,65.320000,553.850000,62.790000,553.850000,56.450000C553.850000,45.740000,566.520000,40.330000,580,40.330000C595.430000,40.330000,612,47.330000,612,61.520000L612,89.520000C612,95.620000,613.610000,101.520000,615.110000,104.030000C592.760000,96.200000,576.980000,105.760000,565.110000,105.760000C554.410000,105.750000,544.160000,99.870000,544.160000,89.510000ZM584.350000,65.210000C577.350000,69.700000,570.190000,76.610000,570.650000,86.510000C571.220000,96.990000,579.170000,99.870000,584.350000,99.870000Z" fill="rgb(230, 42, 48)" fill-opacity="0" stroke="rgb(230, 42, 48)" stroke-width="2" stroke-linejoin="round" stroke-dashoffset="416.860000" stroke-dasharray="416.860000"/><path id="esaqw3p3000c11" d="M616.940000,76.260000L616.940000,61.260000C616.940000,58.960000,617.400000,54,613.940000,48.710000C623.940000,48.710000,635.250000,46.520000,644.580000,41.450000L644.580000,80.290000C644.580000,86.170000,646.300000,88.930000,648.580000,88.930000C652.150000,88.930000,657.220000,82.250000,660.090000,69.810000L660.090000,61.290000C660.090000,58.990000,660.560000,54.030000,657.090000,48.740000C667.090000,48.740000,678.400000,46.550000,687.730000,41.480000L687.730000,89.480000C687.730000,95.580000,689.110000,101.480000,690.610000,103.990000L671.080000,103.990000C662.210000,103.990000,660.080000,98.580000,660.080000,91.440000L660.080000,74.300000C656.450000,87,647,105.860000,633.760000,105.860000C618.440000,105.860000,616.940000,91.120000,616.940000,76.260000Z" fill="rgb(230, 42, 48)" fill-opacity="0" stroke="rgb(230, 42, 48)" stroke-width="2" stroke-linejoin="round" stroke-dashoffset="387.270000" stroke-dasharray="387.270000"/><path id="esaqw3p3000c12" d="M690.940000,88.850000C690.940000,81.720000,697.160000,78.220000,703.940000,78.220000C709.120000,78.220000,714.440000,80.290000,717.030000,84.440000C713.915341,86.460823,712.054325,89.937489,712.100000,93.650000C712.100000,101.430000,716.380000,104.540000,720.790000,104.540000C727.140000,104.540000,733.630000,97.930000,727.530000,88.980000C725.330000,85.870000,720.270000,81.980000,714.530000,77.570000C704.160000,69.790000,692.100000,60.720000,692.100000,51.900000C692.100000,33.900000,713.100000,30.640000,730.860000,32.710000C734.110000,33.100000,749.400000,36.210000,753.940000,33.620000L745.640000,54.750000C741.640000,41.010000,734.750000,34.750000,727.880000,34.750000C722.950000,34.750000,719.070000,37.750000,719.070000,42.750000C719.070000,46.630000,725.160000,50.910000,732.290000,56.100000C742.140000,63.100000,753.810000,71.400000,753.810000,81.640000C753.810000,96.290000,736.960000,106.010000,718.940000,106.010000C705.590000,106.090000,690.940000,100.910000,690.940000,88.850000Z" fill="rgb(230, 42, 48)" fill-opacity="0" stroke="rgb(230, 42, 48)" stroke-width="2" stroke-linejoin="round" stroke-dashoffset="408.970000" stroke-dasharray="408.970000"/></g></g></svg>